<svg width="256" height="256" version="1.1" viewBox="0 0 67.73 67.73" xml:space="preserve" xmlns="http://www.w3.org/2000/svg"><g transform="skewX(-10)" stroke="#ffffff" stroke-linecap="round" stroke-linejoin="round" stroke-width=".5292" aria-label="lmc"><path d="m14.77 44.86v-22.34h4.877v22.34z"/><path d="m47.25 44.86h-4.877v-9.148q0-1.931-0.1145-2.504-0.1146-0.5891-0.6055-0.9655-0.4746-0.3927-1.326-0.3927-0.8018 0-1.636 0.5727-0.8346 0.5727-0.8346 3.289v9.148h-4.86v-9.148q0-1.98-0.18-2.553-0.18-0.5891-0.6873-0.9491-0.4909-0.36-1.26-0.36-1.26 0-1.882 0.8018-0.6055 0.7855-0.6055 3.06v9.148h-4.729v-16.53h4.582v2.52q1.162-2.864 4.647-2.864 3.158 0 4.566 2.864 1.375-2.864 4.795-2.864 1.636 0 2.815 0.6709 1.178 0.6709 1.686 1.751 0.5073 1.08 0.5073 3.715z"/><path d="m65.81 38.66q-0.2782 2.929-2.324 4.746-2.029 1.8-5.253 1.8-3.502 0-5.711-2.307-2.193-2.324-2.193-6.202 0-3.878 2.242-6.284 2.258-2.422 6.022-2.422 3.027 0 5.007 1.816 1.996 1.816 2.209 4.549l-4.549 0.2618q-0.2291-2.978-2.586-2.978-2.896 0-2.896 4.746 0 3.158 0.8018 4.009 0.8182 0.8509 1.98 0.8509 2.258 0 2.7-2.864z"/></g><g transform="matrix(.2646 0 0 .2646 -16.61 82.36)" display="none">
	<rect x="-2385" y="-306.8" width="4532" height="1152" display="inline"/>
</g><g transform="matrix(.2646 0 0 .2646 -109.7 71.65)" display="none">
	<rect x="-2385" y="-306.8" width="4532" height="1152" display="inline"/>
</g><path d="m53.83 21.22c-4.728-0.00918-9.197 2.173-12.14 5.807 0.9939 0.7479 1.676 1.863 1.9 3.141 2.805-4.22 8.049-6.414 13.19-5.095l0.8987-3.354c-1.287-0.3349-2.579-0.4967-3.852-0.4992z" fill="#000000" stroke="#ffffff" stroke-width=".5292"/><path d="m59.54 15.16c-13.49-1.594-20.25 3.884-23.84 9.04l-0.5473 2.042c1.16-0.3445 2.354-0.4516 3.476-0.3188 4.406-6.071 12.21-9.151 19.84-7.153 0.2689-1.109 0.8915-2.856 1.066-3.61z" fill="#000000" stroke="#ffffff" stroke-width=".5292"/></svg>
